  0
SECTION
  2
HEADER
  9
$ACADVER
  1
AC1009
  9
$INSBASE
 10
0
 20
0
 30
0
  9
$EXTMIN
 10
0
 20
0
  9
$EXTMAX
 10
841
 20
594
  9
$LIMMIN
 10
0
 20
0
  9
$LIMMAX
 10
841
 20
594
  9
$LTSCALE
 40
1
  0
ENDSEC
  0
SECTION
  2
TABLES
  0
TABLE
  2
VPORT
  5
    1
100
AcDbSymbolTable
 70
    1
  0
VPORT
  5
    2
100
AcDbSymbolTableRecord
100
AcDbViewportTableRecord
  2
*Active
 70
    0
 10
0
 20
0
 11
1
 21
1
 12
420.5
 22
297
 13
0
 23
0
 14
10
 24
10
 15
10
 25
10
 16
0
 26
0
 36
100
 17
0
 27
0
 37
0
 40
594
 41
1.5376
 42
50
 43
0
 44
0
 50
0
 51
0
 71
    0
 72
  100
 73
    1
 74
    3
 75
    0
 76
    0
 77
    0
 78
    0
  0
ENDTAB
  0
TABLE
  2
LTYPE
 70
     9
  0
LTYPE
  2
CONTINUOUS
 70
    64
  3
実線
 72
    65
 73
     0
 40
0.0
  0
LTYPE
  2
DASHED1
 70
    64
  3
--  --  --  --  --  --  --  --  
 72
    65
 73
     2
 40
2.5
 49
1.25
 49
-1.25
  0
LTYPE
  2
DASHED2
 70
    64
  3
----    ----    ----    ----    
 72
    65
 73
     2
 40
5.0
 49
2.5
 49
-2.5
  0
LTYPE
  2
DASHED3
 70
    64
  3
------  ------  ------  ------  
 72
    65
 73
     2
 40
5.0
 49
3.75
 49
-1.25
  0
LTYPE
  2
CENTER1
 70
    64
  3
----- - ----- - ----- - ----- - 
 72
    65
 73
     4
 40
10.0
 49
6.25
 49
-1.25
 49
1.25
 49
-1.25
  0
LTYPE
  2
CENTER2
 70
    64
  3
----------  --  ----------  --  
 72
    65
 73
     4
 40
20.0
 49
12.5
 49
-2.5
 49
2.5
 49
-2.5
  0
LTYPE
  2
PHANTOM1
 70
    64
  3
--- - - --- - - --- - - --- - - 
 72
    65
 73
     6
 40
10.0
 49
3.25
 49
-1.25
 49
1.25
 49
-1.25
 49
1.25
 49
-1.25
  0
LTYPE
  2
PHANTOM2
 70
    64
  3
--------  -  -  --------  -  -  
 72
    65
 73
     6
 40
20.0
 49
10.0
 49
-2.5
 49
1.25
 49
-2.5
 49
1.25
 49
-2.5
  0
LTYPE
  2
DOT
 70
    64
  3
-   -   -   -   -   -   -   -   
 72
    65
 73
     2
 40
2.5
 49
0.625
 49
-1.875
  0
LTYPE
  2
DUMMY
 70
    64
  3
ダミー
 72
    65
 73
     0
 40
0.0
  0
LTYPE
  2
RAND1
 70
    64
  3
ランダム線1
 72
    65
 73
     4
 40
10.0
 49
1.0
 49
-2.0
 49
3.0
 49
-4.0
  0
LTYPE
  2
RAND2
 70
    64
  3
ランダム線2
 72
    65
 73
     4
 40
14.0
 49
2.0
 49
-3.0
 49
4.0
 49
-5.0
  0
LTYPE
  2
RAND3
 70
    64
  3
ランダム線3
 72
    65
 73
     4
 40
18.0
 49
3.0
 49
-4.0
 49
5.0
 49
-6.0
  0
LTYPE
  2
RAND4
 70
    64
  3
ランダム線4
 72
    65
 73
     4
 40
22.0
 49
4.0
 49
-5.0
 49
6.0
 49
-7.0
  0
LTYPE
  2
RAND5
 70
    64
  3
ランダム線5
 72
    65
 73
     4
 40
26.0
 49
5.0
 49
-6.0
 49
7.0
 49
-8.0
  0
LTYPE
  2
LONG1
 70
    64
  3
----------  --  ----------  --  
 72
    65
 73
     4
 40
40.0
 49
32.5
 49
-2.5
 49
2.5
 49
-2.5
  0
LTYPE
  2
LONG2
 70
    64
  3
--------  -  -  --------  -  -  
 72
    65
 73
     6
 40
40.0
 49
30.0
 49
-2.5
 49
1.25
 49
-2.5
 49
1.25
 49
-2.5
  0
LTYPE
  2
LONG3
 70
    64
  3
+++++++++++++++..+++++++++++++++
 72
    65
 73
     2
 40
40.0
 49
37.5
 49
-2.5
  0
LTYPE
  2
LONG4
 70
    64
  3
+++++++++++++++..+++++++++++++++
 72
    65
 73
     2
 40
80.0
 49
75.0
 49
-5.0
  0
LTYPE
  2
LONG5
 70
    64
  3
----------  --  ----------  --  
 72
    65
 73
     4
 40
60.0
 49
37.5
 49
-7.5
 49
7.5
 49
-7.5
  0
LTYPE
  2
dashed
 70
   64
  3
-------   -------------   ------
 72
   65
 73
    2
 40
7.5
 49
6
 49
-1.5
  0
LTYPE
  2
dashed_spaced
 70
   64
  3
----        --------        ----
 72
   65
 73
    2
 40
12
 49
6
 49
-6
  0
LTYPE
  2
long_dashed_dotted
 70
   64
  3
------------- --- --------------
 72
   65
 73
    4
 40
15.25
 49
12
 49
-1.5
 49
0.25
 49
-1.5
  0
LTYPE
  2
long_dashed_double-dotted
 70
   64
  3
----------- --- --- ------------
 72
   65
 73
    6
 40
17
 49
12
 49
-1.5
 49
0.25
 49
-1.5
 49
0.25
 49
-1.5
  0
LTYPE
  2
long_dashed_triplicate-dotted
 70
   64
  3
--------- --- --- --- ----------
 72
   65
 73
    8
 40
18.75
 49
12
 49
-1.5
 49
0.25
 49
-1.5
 49
0.25
 49
-1.5
 49
0.25
 49
-1.5
  0
LTYPE
  2
dotted
 70
   64
  3
   -       -       -       -    
 72
   65
 73
    2
 40
1.75
 49
0.25
 49
-1.5
  0
LTYPE
  2
chain
 70
   64
  3
-------------- -- --------------
 72
   65
 73
    4
 40
18.5
 49
12
 49
-1.5
 49
3.5
 49
-1.5
  0
LTYPE
  2
chain_double_dash
 70
   64
  3
------------ -- -- -------------
 72
   65
 73
    6
 40
23.5
 49
12
 49
-1.5
 49
3.5
 49
-1.5
 49
3.5
 49
-1.5
  0
LTYPE
  2
dashed_dotted
 70
   64
  3
-----------     -     ----------
 72
   65
 73
    4
 40
9.25
 49
6
 49
-1.5
 49
0.25
 49
-1.5
  0
LTYPE
  2
double-dashed_dotted
 70
   64
  3
------   -----------   -   -----
 72
   65
 73
    6
 40
16.75
 49
6
 49
-1.5
 49
6
 49
-1.5
 49
0.25
 49
-1.5
  0
LTYPE
  2
dashed_double-dotted
 70
   64
  3
---------    -    -    ---------
 72
   65
 73
    6
 40
11
 49
6
 49
-1.5
 49
0.25
 49
-1.5
 49
0.25
 49
-1.5
  0
LTYPE
  2
double-dashed_double-dotted
 70
   64
  3
-----   ---------   -   -   ----
 72
   65
 73
    8
 40
18.5
 49
6
 49
-1.5
 49
6
 49
-1.5
 49
0.25
 49
-1.5
 49
0.25
 49
-1.5
  0
LTYPE
  2
dashed_triplicate-dotted
 70
   64
  3
-------    -    -    -    ------
 72
   65
 73
    8
 40
12.75
 49
6
 49
-1.5
 49
0.25
 49
-1.5
 49
0.25
 49
-1.5
 49
0.25
 49
-1.5
  0
LTYPE
  2
double-dashed_triplicate-dotted
 70
   64
  3
-----  ---------  -  -  -  -----
 72
   65
 73
   10
 40
20.25
 49
6
 49
-1.5
 49
6
 49
-1.5
 49
0.25
 49
-1.5
 49
0.25
 49
-1.5
 49
0.25
 49
-1.5
  0
LTYPE
  2
undefined
 70
   64
  3
--------------------------------
 72
   65
 73
    0
 40
0
  0
LTYPE
  2
_
 70
   64
  3
                                
 72
   65
 73
    0
 40
0
  0
LTYPE
  2
__18
 70
   64
  3
                                
 72
   65
 73
    0
 40
0
  0
LTYPE
  2
__19
 70
   64
  3
                                
 72
   65
 73
    0
 40
0
  0
LTYPE
  2
__20
 70
   64
  3
                                
 72
   65
 73
    0
 40
0
  0
LTYPE
  2
__21
 70
   64
  3
                                
 72
   65
 73
    0
 40
0
  0
LTYPE
  2
__22
 70
   64
  3
                                
 72
   65
 73
    0
 40
0
  0
LTYPE
  2
__23
 70
   64
  3
                                
 72
   65
 73
    0
 40
0
  0
LTYPE
  2
__24
 70
   64
  3
                                
 72
   65
 73
    0
 40
0
  0
LTYPE
  2
__25
 70
   64
  3
                                
 72
   65
 73
    0
 40
0
  0
LTYPE
  2
__26
 70
   64
  3
                                
 72
   65
 73
    0
 40
0
  0
LTYPE
  2
__27
 70
   64
  3
                                
 72
   65
 73
    0
 40
0
  0
LTYPE
  2
__28
 70
   64
  3
                                
 72
   65
 73
    0
 40
0
  0
LTYPE
  2
__29
 70
   64
  3
                                
 72
   65
 73
    0
 40
0
  0
LTYPE
  2
__30
 70
   64
  3
                                
 72
   65
 73
    0
 40
0
  0
LTYPE
  2
__31
 70
   64
  3
                                
 72
   65
 73
    0
 40
0
  0
LTYPE
  2
__32
 70
   64
  3
                                
 72
   65
 73
    0
 40
0
  0
ENDTAB
  0
TABLE
  2
STYLE
  5
3
100
AcDbSymbolTable
 70
     1
  0
STYLE
  5
10
100
AcDbSymbolTableRecord
100
AcDbTextStyleTableRecord
  2
STANDARD
 70
     0
 40
0.0
 41
1.0
 50
0.0
 71
     0
 42
0.2
  3
txt
  4
bigfont.shx
  0
STYLE
  5
26
100
AcDbSymbolTableRecord
100
AcDbTextStyleTableRecord
  2
TATEGAKI
 70
    68
 40
0.0
 41
1.0
 50
0.0
 71
     0
 42
1.0
  3
txt
  4
bigfont.shx
  0
ENDTAB
  0
TABLE
  2
LAYER
 70
  101
  0
LAYER
  2
_0-0_0
 70
   64
 62
    7
  6
CONTINUOUS
  0
LAYER
  2
_0-1_Defpoin
 70
   64
 62
    7
  6
CONTINUOUS
  0
LAYER
  2
_0-2_
 70
   64
 62
    7
  6
CONTINUOUS
  0
LAYER
  2
_0-3_
 70
   64
 62
    7
  6
CONTINUOUS
  0
LAYER
  2
_0-4_
 70
   64
 62
    7
  6
CONTINUOUS
  0
LAYER
  2
_0-5_
 70
   64
 62
    7
  6
CONTINUOUS
  0
LAYER
  2
_0-6_
 70
   64
 62
    7
  6
CONTINUOUS
  0
LAYER
  2
_0-7_
 70
   64
 62
    7
  6
CONTINUOUS
  0
LAYER
  2
_0-8_
 70
   64
 62
    7
  6
CONTINUOUS
  0
LAYER
  2
_0-9_
 70
   64
 62
    7
  6
CONTINUOUS
  0
LAYER
  2
_0-a_
 70
   64
 62
    7
  6
CONTINUOUS
  0
LAYER
  2
_0-b_
 70
   64
 62
    7
  6
CONTINUOUS
  0
LAYER
  2
_0-c_
 70
   64
 62
    7
  6
CONTINUOUS
  0
LAYER
  2
_0-d_
 70
   64
 62
    7
  6
CONTINUOUS
  0
LAYER
  2
_0-e_
 70
   64
 62
    7
  6
CONTINUOUS
  0
LAYER
  2
_0-f_
 70
   64
 62
    7
  6
CONTINUOUS
  0
LAYER
  2
_1-0_
 70
   64
 62
    7
  6
CONTINUOUS
  0
LAYER
  2
_1-1_
 70
   64
 62
    7
  6
CONTINUOUS
  0
LAYER
  2
_1-2_
 70
   64
 62
    7
  6
CONTINUOUS
  0
LAYER
  2
_1-3_
 70
   64
 62
    7
  6
CONTINUOUS
  0
LAYER
  2
_1-4_
 70
   64
 62
    7
  6
CONTINUOUS
  0
LAYER
  2
_1-5_
 70
   64
 62
    7
  6
CONTINUOUS
  0
LAYER
  2
_1-6_
 70
   64
 62
    7
  6
CONTINUOUS
  0
LAYER
  2
_1-7_
 70
   64
 62
    7
  6
CONTINUOUS
  0
LAYER
  2
_1-8_
 70
   64
 62
    7
  6
CONTINUOUS
  0
LAYER
  2
_1-9_
 70
   64
 62
    7
  6
CONTINUOUS
  0
LAYER
  2
_1-a_
 70
   64
 62
    7
  6
CONTINUOUS
  0
LAYER
  2
_1-b_
 70
   64
 62
    7
  6
CONTINUOUS
  0
LAYER
  2
_1-c_
 70
   64
 62
    7
  6
CONTINUOUS
  0
LAYER
  2
_1-d_
 70
   64
 62
    7
  6
CONTINUOUS
  0
LAYER
  2
_1-e_
 70
   64
 62
    7
  6
CONTINUOUS
  0
LAYER
  2
_1-f_
 70
   64
 62
    7
  6
CONTINUOUS
  0
LAYER
  2
_2-0_
 70
   64
 62
    7
  6
CONTINUOUS
  0
LAYER
  2
_2-1_
 70
   64
 62
    7
  6
CONTINUOUS
  0
LAYER
  2
_2-2_
 70
   64
 62
    7
  6
CONTINUOUS
  0
LAYER
  2
_2-3_
 70
   64
 62
    7
  6
CONTINUOUS
  0
LAYER
  2
_2-4_
 70
   64
 62
    7
  6
CONTINUOUS
  0
LAYER
  2
_2-5_
 70
   64
 62
    7
  6
CONTINUOUS
  0
LAYER
  2
_2-6_
 70
   64
 62
    7
  6
CONTINUOUS
  0
LAYER
  2
_2-7_
 70
   64
 62
    7
  6
CONTINUOUS
  0
LAYER
  2
_2-8_
 70
   64
 62
    7
  6
CONTINUOUS
  0
LAYER
  2
_2-9_
 70
   64
 62
    7
  6
CONTINUOUS
  0
LAYER
  2
_2-a_
 70
   64
 62
    7
  6
CONTINUOUS
  0
LAYER
  2
_2-b_
 70
   64
 62
    7
  6
CONTINUOUS
  0
LAYER
  2
_2-c_
 70
   64
 62
    7
  6
CONTINUOUS
  0
LAYER
  2
_2-d_
 70
   64
 62
    7
  6
CONTINUOUS
  0
LAYER
  2
_2-e_
 70
   64
 62
    7
  6
CONTINUOUS
  0
LAYER
  2
_2-f_
 70
   64
 62
    7
  6
CONTINUOUS
  0
LAYER
  2
_3-0_
 70
   64
 62
    7
  6
CONTINUOUS
  0
LAYER
  2
_3-1_
 70
   64
 62
    7
  6
CONTINUOUS
  0
LAYER
  2
_3-2_
 70
   64
 62
    7
  6
CONTINUOUS
  0
LAYER
  2
_3-3_
 70
   64
 62
    7
  6
CONTINUOUS
  0
LAYER
  2
_3-4_
 70
   64
 62
    7
  6
CONTINUOUS
  0
LAYER
  2
_3-5_
 70
   64
 62
    7
  6
CONTINUOUS
  0
LAYER
  2
_3-6_
 70
   64
 62
    7
  6
CONTINUOUS
  0
LAYER
  2
_3-7_
 70
   64
 62
    7
  6
CONTINUOUS
  0
LAYER
  2
_3-8_
 70
   64
 62
    7
  6
CONTINUOUS
  0
LAYER
  2
_3-9_
 70
   64
 62
    7
  6
CONTINUOUS
  0
LAYER
  2
_3-a_
 70
   64
 62
    7
  6
CONTINUOUS
  0
LAYER
  2
_3-b_
 70
   64
 62
    7
  6
CONTINUOUS
  0
LAYER
  2
_3-c_
 70
   64
 62
    7
  6
CONTINUOUS
  0
LAYER
  2
_3-d_
 70
   64
 62
    7
  6
CONTINUOUS
  0
LAYER
  2
_3-e_
 70
   64
 62
    7
  6
CONTINUOUS
  0
LAYER
  2
_3-f_
 70
   64
 62
    7
  6
CONTINUOUS
  0
LAYER
  2
_4-0_
 70
   64
 62
    7
  6
CONTINUOUS
  0
LAYER
  2
_4-1_
 70
   64
 62
    7
  6
CONTINUOUS
  0
LAYER
  2
_4-2_
 70
   64
 62
    7
  6
CONTINUOUS
  0
LAYER
  2
_4-3_
 70
   64
 62
    7
  6
CONTINUOUS
  0
LAYER
  2
_4-4_
 70
   64
 62
    7
  6
CONTINUOUS
  0
LAYER
  2
_4-5_
 70
   64
 62
    7
  6
CONTINUOUS
  0
LAYER
  2
_4-6_
 70
   64
 62
    7
  6
CONTINUOUS
  0
LAYER
  2
_4-7_
 70
   64
 62
    7
  6
CONTINUOUS
  0
LAYER
  2
_4-8_
 70
   64
 62
    7
  6
CONTINUOUS
  0
LAYER
  2
_4-9_
 70
   64
 62
    7
  6
CONTINUOUS
  0
LAYER
  2
_4-a_
 70
   64
 62
    7
  6
CONTINUOUS
  0
LAYER
  2
_4-b_
 70
   64
 62
    7
  6
CONTINUOUS
  0
LAYER
  2
_4-c_
 70
   64
 62
    7
  6
CONTINUOUS
  0
LAYER
  2
_4-d_
 70
   64
 62
    7
  6
CONTINUOUS
  0
LAYER
  2
_4-e_
 70
   64
 62
    7
  6
CONTINUOUS
  0
LAYER
  2
_4-f_
 70
   64
 62
    7
  6
CONTINUOUS
  0
LAYER
  2
_5-0_
 70
   64
 62
    7
  6
CONTINUOUS
  0
LAYER
  2
_5-1_
 70
   64
 62
    7
  6
CONTINUOUS
  0
LAYER
  2
_5-2_
 70
   64
 62
    7
  6
CONTINUOUS
  0
LAYER
  2
_5-3_
 70
   64
 62
    7
  6
CONTINUOUS
  0
LAYER
  2
_5-4_
 70
   64
 62
    7
  6
CONTINUOUS
  0
LAYER
  2
_5-5_
 70
   64
 62
    7
  6
CONTINUOUS
  0
LAYER
  2
_5-6_
 70
   64
 62
    7
  6
CONTINUOUS
  0
LAYER
  2
_5-7_
 70
   64
 62
    7
  6
CONTINUOUS
  0
LAYER
  2
_5-8_
 70
   64
 62
    7
  6
CONTINUOUS
  0
LAYER
  2
_5-9_
 70
   64
 62
    7
  6
CONTINUOUS
  0
LAYER
  2
_5-a_
 70
   64
 62
    7
  6
CONTINUOUS
  0
LAYER
  2
_5-b_
 70
   64
 62
    7
  6
CONTINUOUS
  0
LAYER
  2
_5-c_
 70
   64
 62
    7
  6
CONTINUOUS
  0
LAYER
  2
_5-d_
 70
   64
 62
    7
  6
CONTINUOUS
  0
LAYER
  2
_5-e_
 70
   64
 62
    7
  6
CONTINUOUS
  0
LAYER
  2
_5-f_
 70
   64
 62
    7
  6
CONTINUOUS
  0
LAYER
  2
_6-0_
 70
   64
 62
    7
  6
CONTINUOUS
  0
LAYER
  2
_6-1_
 70
   64
 62
    7
  6
CONTINUOUS
  0
LAYER
  2
_6-2_
 70
   64
 62
    7
  6
CONTINUOUS
  0
LAYER
  2
_6-3_
 70
   64
 62
    7
  6
CONTINUOUS
  0
LAYER
  2
ADD_LINE
 70
   64
 62
    7
  6
CONTINUOUS
  0
ENDTAB
  0
ENDSEC
  0
SECTION
  2
BLOCKS
  0
ENDSEC
  0
SECTION
  2
ENTITIES
  0
POINT
  8
_0-0_0
 62
   18
 10
420.5
 20
296.99999499228931
  0
POINT
  8
_0-1_Defpoin
 62
   18
 10
421.50000465422522
 20
299.00000430073976
  0
POINT
  8
_0-2_
 62
   18
 10
422.50000930845044
 20
300.99998883575085
  0
POINT
  8
_0-3_
 62
   18
 10
423.50001396267572
 20
302.99999814420129
  0
POINT
  8
_0-4_
 62
   18
 10
424.50001861690094
 20
305.0000074526518
  0
POINT
  8
_0-5_
 62
   18
 10
425.50002327112616
 20
306.99999198766289
  0
POINT
  8
_0-6_
 62
   18
 10
426.49997837847263
 20
309.00000129611333
  0
POINT
  8
_0-7_
 62
   18
 10
427.49998303269785
 20
311.00001060456384
  0
POINT
  8
_0-8_
 62
   18
 10
428.49998768692307
 20
312.99999513957493
  0
POINT
  8
_0-9_
 62
   18
 10
429.49999234114835
 20
315.00000444802537
  0
POINT
  8
_0-a_
 62
   18
 10
430.49999699537357
 20
316.99998898303647
  0
POINT
  8
_0-b_
 62
   18
 10
431.5000016495988
 20
318.99999829148691
  0
POINT
  8
_0-c_
 62
   18
 10
432.50000630382402
 20
321.00000759993741
  0
POINT
  8
_0-d_
 62
   18
 10
433.5000109580493
 20
322.99999213494851
  0
POINT
  8
_0-e_
 62
   18
 10
434.50001561227452
 20
325.00000144339895
  0
POINT
  8
_0-f_
 62
   18
 10
435.50002026649974
 20
327.00001075184945
  0
POINT
  8
_1-0_
 62
   18
 10
436.49997537384621
 20
328.99999528686049
  0
POINT
  8
_1-1_
 62
   18
 10
437.49998002807143
 20
331.00000459531099
  0
POINT
  8
_1-2_
 62
   18
 10
438.49998468229671
 20
332.99998913032209
  0
POINT
  8
_1-3_
 62
   18
 10
439.49998933652193
 20
334.99999843877253
  0
POINT
  8
_1-4_
 62
   18
 10
440.49999399074715
 20
337.00000774722303
  0
POINT
  8
_1-5_
 62
   18
 10
441.49999864497237
 20
338.99999228223407
  0
POINT
  8
_1-6_
 62
   18
 10
442.5000032991976
 20
341.00000159068457
  0
POINT
  8
_1-7_
 62
   18
 10
443.50000795342288
 20
343.00001089913502
  0
POINT
  8
_1-8_
 62
   18
 10
444.5000126076481
 20
344.99999543414611
  0
POINT
  8
_1-9_
 62
   18
 10
445.50001726187332
 20
347.00000474259661
  0
POINT
  8
_1-a_
 62
   18
 10
446.50002191609854
 20
348.99998927760765
  0
POINT
  8
_1-b_
 62
   18
 10
447.49997702344501
 20
350.99999858605815
  0
POINT
  8
_1-c_
 62
   18
 10
448.49998167767029
 20
353.00000789450859
  0
POINT
  8
_1-d_
 62
   18
 10
449.49998633189551
 20
354.99999242951969
  0
POINT
  8
_1-e_
 62
   18
 10
450.49999098612073
 20
357.00000173797019
  0
POINT
  8
_1-f_
 62
   18
 10
451.49999564034595
 20
359.00001104642063
  0
POINT
  8
_2-0_
 62
   18
 10
452.50000029457123
 20
360.99999558143173
  0
POINT
  8
_2-1_
 62
   18
 10
453.50000494879645
 20
363.00000488988217
  0
POINT
  8
_2-2_
 62
   18
 10
454.50000960302168
 20
364.99998942489327
  0
POINT
  8
_2-3_
 62
   18
 10
455.5000142572469
 20
366.99999873334377
  0
POINT
  8
_2-4_
 62
   18
 10
456.50001891147212
 20
369.00000804179421
  0
POINT
  8
_2-5_
 62
   18
 10
457.5000235656974
 20
370.99999257680531
  0
POINT
  8
_2-6_
 62
   18
 10
458.49997867304387
 20
373.00000188525581
  0
POINT
  8
_2-7_
 62
   18
 10
459.49998332726909
 20
375.00001119370625
  0
POINT
  8
_2-8_
 62
   18
 10
460.49998798149431
 20
376.99999572871735
  0
POINT
  8
_2-9_
 62
   18
 10
461.49999263571953
 20
379.00000503716779
  0
POINT
  8
_2-a_
 62
   18
 10
462.49999728994481
 20
380.99998957217889
  0
POINT
  8
_2-b_
 62
   18
 10
463.50000194417003
 20
382.99999888062939
  0
POINT
  8
_2-c_
 62
   18
 10
464.50000659839525
 20
385.00000818907983
  0
POINT
  8
_2-d_
 62
   18
 10
465.50001125262048
 20
386.99999272409093
  0
POINT
  8
_2-e_
 62
   18
 10
466.50001590684576
 20
389.00000203254137
  0
POINT
  8
_2-f_
 62
   18
 10
467.50002056107098
 20
391.00001134099187
  0
POINT
  8
_3-0_
 62
   18
 10
468.49997566841744
 20
392.99999587600296
  0
POINT
  8
_3-1_
 62
   18
 10
469.49998032264267
 20
395.00000518445341
  0
POINT
  8
_3-2_
 62
   18
 10
470.49998497686789
 20
396.9999897194645
  0
POINT
  8
_3-3_
 62
   18
 10
471.49998963109311
 20
398.99999902791495
  0
POINT
  8
_3-4_
 62
   18
 10
472.49999428531839
 20
401.00000833636545
  0
POINT
  8
_3-5_
 62
   18
 10
473.49999893954361
 20
402.99999287137654
  0
POINT
  8
_3-6_
 62
   18
 10
474.50000359376883
 20
405.00000217982699
  0
POINT
  8
_3-7_
 62
   18
 10
475.50000824799406
 20
407.00001148827749
  0
POINT
  8
_3-8_
 62
   18
 10
476.50001290221933
 20
408.99999602328853
  0
POINT
  8
_3-9_
 62
   18
 10
477.50001755644456
 20
411.00000533173903
  0
POINT
  8
_3-a_
 62
   18
 10
478.50002221066978
 20
412.99998986675012
  0
POINT
  8
_3-b_
 62
   18
 10
479.49997731801624
 20
414.99999917520057
  0
POINT
  8
_3-c_
 62
   18
 10
480.49998197224147
 20
417.00000848365107
  0
POINT
  8
_3-d_
 62
   18
 10
481.49998662646669
 20
419.00001779210151
  0
POINT
  8
_3-e_
 62
   18
 10
482.49999128069197
 20
420.9999775536732
  0
POINT
  8
_3-f_
 62
   18
 10
483.49999593491719
 20
422.9999868621237
  0
POINT
  8
_4-0_
 62
   18
 10
484.50000058914241
 20
424.99999617057414
  0
POINT
  8
_4-1_
 62
   18
 10
485.50000524336763
 20
427.00000547902465
  0
POINT
  8
_4-2_
 62
   18
 10
486.50000989759291
 20
429.00001478747509
  0
POINT
  8
_4-3_
 62
   18
 10
487.50001455181813
 20
431.00002409592559
  0
POINT
  8
_4-4_
 62
   18
 10
488.50001920604336
 20
432.99998385749728
  0
POINT
  8
_4-5_
 62
   18
 10
489.50002386026858
 20
434.99999316594772
  0
POINT
  8
_4-6_
 62
   18
 10
490.49997896761504
 20
437.00000247439822
  0
POINT
  8
_4-7_
 62
   18
 10
491.49998362184032
 20
439.00001178284867
  0
POINT
  8
_4-8_
 62
   18
 10
492.49998827606555
 20
441.00002109129917
  0
POINT
  8
_4-9_
 62
   18
 10
493.49999293029077
 20
442.99998085287086
  0
POINT
  8
_4-a_
 62
   18
 10
494.49999758451599
 20
444.9999901613213
  0
POINT
  8
_4-b_
 62
   18
 10
495.50000223874121
 20
446.9999994697718
  0
POINT
  8
_4-c_
 62
   18
 10
496.50000689296649
 20
449.00000877822225
  0
POINT
  8
_4-d_
 62
   18
 10
497.50001154719171
 20
451.00001808667275
  0
POINT
  8
_4-e_
 62
   18
 10
498.50001620141694
 20
452.99997784824444
  0
POINT
  8
_4-f_
 62
   18
 10
499.50002085564216
 20
454.99998715669488
  0
POINT
  8
_5-0_
 62
   18
 10
500.49997596298862
 20
456.99999646514538
  0
POINT
  8
_5-1_
 62
   18
 10
501.4999806172139
 20
459.00000577359583
  0
POINT
  8
_5-2_
 62
   18
 10
502.49998527143912
 20
461.00001508204633
  0
POINT
  8
_5-3_
 62
   18
 10
503.49998992566435
 20
463.00002439049677
  0
POINT
  8
_5-4_
 62
   18
 10
504.49999457988957
 20
464.99998415206852
  0
POINT
  8
_5-5_
 62
   18
 10
505.49999923411485
 20
466.99999346051896
  0
POINT
  8
_5-6_
 62
   18
 10
506.50000388834007
 20
469.0000027689694
  0
POINT
  8
_5-7_
 62
   18
 10
507.50000854256529
 20
471.00001207741991
  0
POINT
  8
_5-8_
 62
   18
 10
508.50001319679051
 20
473.00002138587035
  0
POINT
  8
_5-9_
 62
   18
 10
509.50001785101574
 20
474.99998114744209
  0
POINT
  8
_5-a_
 62
   18
 10
510.50002250524102
 20
476.99999045589254
  0
POINT
  8
_5-b_
 62
   18
 10
511.49997761258748
 20
478.99999976434304
  0
POINT
  8
_5-c_
 62
   18
 10
512.4999822668127
 20
481.00000907279348
  0
POINT
  8
_5-d_
 62
   18
 10
513.49998692103793
 20
483.00001838124393
  0
POINT
  8
_5-e_
 62
   18
 10
514.49999157526315
 20
484.99997814281567
  0
POINT
  8
_5-f_
 62
   18
 10
515.49999622948837
 20
486.99998745126612
  0
POINT
  8
_6-0_
 62
   18
 10
516.50000088371359
 20
488.99999675971662
  0
POINT
  8
_6-1_
 62
   18
 10
517.50000553793893
 20
491.00000606816706
  0
POINT
  8
_6-2_
 62
   18
 10
518.50001019216415
 20
493.00001537661756
  0
POINT
  8
_6-3_
 62
   18
 10
519.50001484638937
 20
495.00002468506801
  0
ENDSEC
  0
EOF
