  0
SECTION
  2
HEADER
  9
$ACADVER
  1
AC1009
  9
$INSBASE
 10
0
 20
0
 30
0
  9
$EXTMIN
 10
0
 20
0
  9
$EXTMAX
 10
841
 20
594
  9
$LIMMIN
 10
0
 20
0
  9
$LIMMAX
 10
841
 20
594
  9
$LTSCALE
 40
1
  0
ENDSEC
  0
SECTION
  2
TABLES
  0
TABLE
  2
VPORT
  5
    1
100
AcDbSymbolTable
 70
    1
  0
VPORT
  5
    2
100
AcDbSymbolTableRecord
100
AcDbViewportTableRecord
  2
*Active
 70
    0
 10
0
 20
0
 11
1
 21
1
 12
420.5
 22
297
 13
0
 23
0
 14
10
 24
10
 15
10
 25
10
 16
0
 26
0
 36
100
 17
0
 27
0
 37
0
 40
594
 41
1.5376
 42
50
 43
0
 44
0
 50
0
 51
0
 71
    0
 72
  100
 73
    1
 74
    3
 75
    0
 76
    0
 77
    0
 78
    0
  0
ENDTAB
  0
TABLE
  2
LTYPE
 70
     9
  0
LTYPE
  2
CONTINUOUS
 70
    64
  3
実線
 72
    65
 73
     0
 40
0.0
  0
LTYPE
  2
DASHED1
 70
    64
  3
--  --  --  --  --  --  --  --  
 72
    65
 73
     2
 40
2.5
 49
1.25
 49
-1.25
  0
LTYPE
  2
DASHED2
 70
    64
  3
----    ----    ----    ----    
 72
    65
 73
     2
 40
5.0
 49
2.5
 49
-2.5
  0
LTYPE
  2
DASHED3
 70
    64
  3
------  ------  ------  ------  
 72
    65
 73
     2
 40
5.0
 49
3.75
 49
-1.25
  0
LTYPE
  2
CENTER1
 70
    64
  3
----- - ----- - ----- - ----- - 
 72
    65
 73
     4
 40
10.0
 49
6.25
 49
-1.25
 49
1.25
 49
-1.25
  0
LTYPE
  2
CENTER2
 70
    64
  3
----------  --  ----------  --  
 72
    65
 73
     4
 40
20.0
 49
12.5
 49
-2.5
 49
2.5
 49
-2.5
  0
LTYPE
  2
PHANTOM1
 70
    64
  3
--- - - --- - - --- - - --- - - 
 72
    65
 73
     6
 40
10.0
 49
3.25
 49
-1.25
 49
1.25
 49
-1.25
 49
1.25
 49
-1.25
  0
LTYPE
  2
PHANTOM2
 70
    64
  3
--------  -  -  --------  -  -  
 72
    65
 73
     6
 40
20.0
 49
10.0
 49
-2.5
 49
1.25
 49
-2.5
 49
1.25
 49
-2.5
  0
LTYPE
  2
DOT
 70
    64
  3
-   -   -   -   -   -   -   -   
 72
    65
 73
     2
 40
2.5
 49
0.625
 49
-1.875
  0
LTYPE
  2
DUMMY
 70
    64
  3
ダミー
 72
    65
 73
     0
 40
0.0
  0
LTYPE
  2
RAND1
 70
    64
  3
ランダム線1
 72
    65
 73
     4
 40
10.0
 49
1.0
 49
-2.0
 49
3.0
 49
-4.0
  0
LTYPE
  2
RAND2
 70
    64
  3
ランダム線2
 72
    65
 73
     4
 40
14.0
 49
2.0
 49
-3.0
 49
4.0
 49
-5.0
  0
LTYPE
  2
RAND3
 70
    64
  3
ランダム線3
 72
    65
 73
     4
 40
18.0
 49
3.0
 49
-4.0
 49
5.0
 49
-6.0
  0
LTYPE
  2
RAND4
 70
    64
  3
ランダム線4
 72
    65
 73
     4
 40
22.0
 49
4.0
 49
-5.0
 49
6.0
 49
-7.0
  0
LTYPE
  2
RAND5
 70
    64
  3
ランダム線5
 72
    65
 73
     4
 40
26.0
 49
5.0
 49
-6.0
 49
7.0
 49
-8.0
  0
LTYPE
  2
LONG1
 70
    64
  3
----------  --  ----------  --  
 72
    65
 73
     4
 40
40.0
 49
32.5
 49
-2.5
 49
2.5
 49
-2.5
  0
LTYPE
  2
LONG2
 70
    64
  3
--------  -  -  --------  -  -  
 72
    65
 73
     6
 40
40.0
 49
30.0
 49
-2.5
 49
1.25
 49
-2.5
 49
1.25
 49
-2.5
  0
LTYPE
  2
LONG3
 70
    64
  3
+++++++++++++++..+++++++++++++++
 72
    65
 73
     2
 40
40.0
 49
37.5
 49
-2.5
  0
LTYPE
  2
LONG4
 70
    64
  3
+++++++++++++++..+++++++++++++++
 72
    65
 73
     2
 40
80.0
 49
75.0
 49
-5.0
  0
LTYPE
  2
LONG5
 70
    64
  3
----------  --  ----------  --  
 72
    65
 73
     4
 40
60.0
 49
37.5
 49
-7.5
 49
7.5
 49
-7.5
  0
LTYPE
  2
dashed
 70
   64
  3
-------   -------------   ------
 72
   65
 73
    2
 40
7.5
 49
6
 49
-1.5
  0
LTYPE
  2
dashed_spaced
 70
   64
  3
----        --------        ----
 72
   65
 73
    2
 40
12
 49
6
 49
-6
  0
LTYPE
  2
long_dashed_dotted
 70
   64
  3
------------- --- --------------
 72
   65
 73
    4
 40
15.25
 49
12
 49
-1.5
 49
0.25
 49
-1.5
  0
LTYPE
  2
long_dashed_double-dotted
 70
   64
  3
----------- --- --- ------------
 72
   65
 73
    6
 40
17
 49
12
 49
-1.5
 49
0.25
 49
-1.5
 49
0.25
 49
-1.5
  0
LTYPE
  2
long_dashed_triplicate-dotted
 70
   64
  3
--------- --- --- --- ----------
 72
   65
 73
    8
 40
18.75
 49
12
 49
-1.5
 49
0.25
 49
-1.5
 49
0.25
 49
-1.5
 49
0.25
 49
-1.5
  0
LTYPE
  2
dotted
 70
   64
  3
   -       -       -       -    
 72
   65
 73
    2
 40
1.75
 49
0.25
 49
-1.5
  0
LTYPE
  2
chain
 70
   64
  3
-------------- -- --------------
 72
   65
 73
    4
 40
18.5
 49
12
 49
-1.5
 49
3.5
 49
-1.5
  0
LTYPE
  2
chain_double_dash
 70
   64
  3
------------ -- -- -------------
 72
   65
 73
    6
 40
23.5
 49
12
 49
-1.5
 49
3.5
 49
-1.5
 49
3.5
 49
-1.5
  0
LTYPE
  2
dashed_dotted
 70
   64
  3
-----------     -     ----------
 72
   65
 73
    4
 40
9.25
 49
6
 49
-1.5
 49
0.25
 49
-1.5
  0
LTYPE
  2
double-dashed_dotted
 70
   64
  3
------   -----------   -   -----
 72
   65
 73
    6
 40
16.75
 49
6
 49
-1.5
 49
6
 49
-1.5
 49
0.25
 49
-1.5
  0
LTYPE
  2
dashed_double-dotted
 70
   64
  3
---------    -    -    ---------
 72
   65
 73
    6
 40
11
 49
6
 49
-1.5
 49
0.25
 49
-1.5
 49
0.25
 49
-1.5
  0
LTYPE
  2
double-dashed_double-dotted
 70
   64
  3
-----   ---------   -   -   ----
 72
   65
 73
    8
 40
18.5
 49
6
 49
-1.5
 49
6
 49
-1.5
 49
0.25
 49
-1.5
 49
0.25
 49
-1.5
  0
LTYPE
  2
dashed_triplicate-dotted
 70
   64
  3
-------    -    -    -    ------
 72
   65
 73
    8
 40
12.75
 49
6
 49
-1.5
 49
0.25
 49
-1.5
 49
0.25
 49
-1.5
 49
0.25
 49
-1.5
  0
LTYPE
  2
double-dashed_triplicate-dotted
 70
   64
  3
-----  ---------  -  -  -  -----
 72
   65
 73
   10
 40
20.25
 49
6
 49
-1.5
 49
6
 49
-1.5
 49
0.25
 49
-1.5
 49
0.25
 49
-1.5
 49
0.25
 49
-1.5
  0
LTYPE
  2
undefined
 70
   64
  3
--------------------------------
 72
   65
 73
    0
 40
0
  0
LTYPE
  2
_
 70
   64
  3
                                
 72
   65
 73
    0
 40
0
  0
LTYPE
  2
__18
 70
   64
  3
                                
 72
   65
 73
    0
 40
0
  0
LTYPE
  2
__19
 70
   64
  3
                                
 72
   65
 73
    0
 40
0
  0
LTYPE
  2
__20
 70
   64
  3
                                
 72
   65
 73
    0
 40
0
  0
LTYPE
  2
__21
 70
   64
  3
                                
 72
   65
 73
    0
 40
0
  0
LTYPE
  2
__22
 70
   64
  3
                                
 72
   65
 73
    0
 40
0
  0
LTYPE
  2
__23
 70
   64
  3
                                
 72
   65
 73
    0
 40
0
  0
LTYPE
  2
__24
 70
   64
  3
                                
 72
   65
 73
    0
 40
0
  0
LTYPE
  2
__25
 70
   64
  3
                                
 72
   65
 73
    0
 40
0
  0
LTYPE
  2
__26
 70
   64
  3
                                
 72
   65
 73
    0
 40
0
  0
LTYPE
  2
__27
 70
   64
  3
                                
 72
   65
 73
    0
 40
0
  0
LTYPE
  2
__28
 70
   64
  3
                                
 72
   65
 73
    0
 40
0
  0
LTYPE
  2
__29
 70
   64
  3
                                
 72
   65
 73
    0
 40
0
  0
LTYPE
  2
__30
 70
   64
  3
                                
 72
   65
 73
    0
 40
0
  0
LTYPE
  2
__31
 70
   64
  3
                                
 72
   65
 73
    0
 40
0
  0
LTYPE
  2
__32
 70
   64
  3
                                
 72
   65
 73
    0
 40
0
  0
ENDTAB
  0
TABLE
  2
STYLE
  5
3
100
AcDbSymbolTable
 70
     1
  0
STYLE
  5
10
100
AcDbSymbolTableRecord
100
AcDbTextStyleTableRecord
  2
STANDARD
 70
     0
 40
0.0
 41
1.0
 50
0.0
 71
     0
 42
0.2
  3
txt
  4
bigfont.shx
  0
STYLE
  5
26
100
AcDbSymbolTableRecord
100
AcDbTextStyleTableRecord
  2
TATEGAKI
 70
    68
 40
0.0
 41
1.0
 50
0.0
 71
     0
 42
1.0
  3
txt
  4
bigfont.shx
  0
ENDTAB
  0
TABLE
  2
LAYER
 70
    2
  0
LAYER
  2
_0-0_0
 70
   64
 62
    7
  6
CONTINUOUS
  0
LAYER
  2
ADD_LINE
 70
   64
 62
    7
  6
CONTINUOUS
  0
ENDTAB
  0
ENDSEC
  0
SECTION
  2
BLOCKS
  0
ENDSEC
  0
SECTION
  2
ENTITIES
  0
LINE
  8
_0-0_0
  6
CONTINUOUS
 62
  132
 10
429.56219277707742
 20
305.49999190773905
 11
429.56219277707742
 21
305.49999190773905
  0
LINE
  8
_0-0_0
  6
CONTINUOUS
 62
  132
 10
429.56219277707742
 20
305.49999190773905
 11
429.16621048570402
 21
305.97316221922545
  0
LINE
  8
_0-0_0
  6
CONTINUOUS
 62
  132
 10
429.16621048570402
 20
305.97316221922545
 11
428.59806368021224
 21
306.32560980939405
  0
LINE
  8
_0-0_0
  6
CONTINUOUS
 62
  132
 10
428.59806368021224
 20
306.32560980939405
 11
427.87501521379067
 21
306.54662573656457
  0
LINE
  8
_0-0_0
  6
CONTINUOUS
 62
  132
 10
427.87501521379067
 20
306.54662573656457
 11
427.01903454821149
 21
306.62949454362944
  0
LINE
  8
_0-0_0
  6
CONTINUOUS
 62
  132
 10
427.01903454821149
 20
306.62949454362944
 11
426.05613022285109
 21
306.57169830381963
  0
LINE
  8
_0-0_0
  6
CONTINUOUS
 62
  132
 10
426.05613022285109
 20
306.57169830381963
 11
425.01555959838253
 21
306.37499312663544
  0
LINE
  8
_0-0_0
  6
CONTINUOUS
 62
  132
 10
425.01555959838253
 20
306.37499312663544
 11
423.92893988667611
 21
306.04535579934798
  0
LINE
  8
_0-0_0
  6
CONTINUOUS
 62
  132
 10
423.92893988667611
 20
306.04535579934798
 11
422.82928747781591
 21
305.59280218534235
  0
LINE
  8
_0-0_0
  6
CONTINUOUS
 62
  132
 10
422.82928747781591
 20
305.59280218534235
 11
421.75001475379423
 21
305.03108289717692
  0
LINE
  8
_0-0_0
  6
CONTINUOUS
 62
  132
 10
421.75001475379423
 20
305.03108289717692
 11
420.72391487019206
 21
304.377265491179
  0
LINE
  8
_0-0_0
  6
CONTINUOUS
 62
  132
 10
420.72391487019206
 20
304.377265491179
 11
419.78216535274111
 21
303.65121587838217
  0
LINE
  8
_0-0_0
  6
CONTINUOUS
 62
  132
 10
419.78216535274111
 20
303.65121587838217
 11
418.95338078398083
 21
302.87499470887246
  0
LINE
  8
_0-0_0
  6
CONTINUOUS
 62
  132
 10
418.95338078398083
 20
302.87499470887246
 11
418.26274336364781
 21
302.07218707009855
  0
LINE
  8
_0-0_0
  6
CONTINUOUS
 62
  132
 10
418.26274336364781
 20
302.07218707009855
 11
417.73123776027944
 21
301.26718586592437
  0
LINE
  8
_0-0_0
  6
CONTINUOUS
 62
  132
 10
417.73123776027944
 20
301.26718586592437
 11
417.37501350267928
 21
300.48445065058842
  0
LINE
  8
_0-0_0
  6
CONTINUOUS
 62
  132
 10
417.37501350267928
 20
300.48445065058842
 11
417.20489428465629
 21
299.74776443752563
  0
LINE
  8
_0-0_0
  6
CONTINUOUS
 62
  132
 10
417.20489428465629
 20
299.74776443752563
 11
417.22604909256568
 21
299.07951106453862
  0
LINE
  8
_0-0_0
  6
CONTINUOUS
 62
  132
 10
417.22604909256568
 20
299.07951106453862
 11
417.43783514827401
 21
298.49999507221309
  0
LINE
  8
_0-0_0
  6
CONTINUOUS
 62
  132
 10
417.43783514827401
 20
298.49999507221309
 11
417.83381743964741
 21
298.02682476072669
  0
LINE
  8
_0-0_0
  6
CONTINUOUS
 62
  132
 10
417.83381743964741
 20
298.02682476072669
 11
418.40196424513919
 21
297.6743771705581
  0
LINE
  8
_0-0_0
  6
CONTINUOUS
 62
  132
 10
418.40196424513919
 20
297.6743771705581
 11
419.12501271156071
 21
297.45336124338757
  0
LINE
  8
_0-0_0
  6
CONTINUOUS
 62
  132
 10
419.12501271156071
 20
297.45336124338757
 11
419.98099337713995
 21
297.3704924363227
  0
LINE
  8
_0-0_0
  6
CONTINUOUS
 62
  132
 10
419.98099337713995
 20
297.3704924363227
 11
420.94389770250035
 21
297.42828867613252
  0
LINE
  8
_0-0_0
  6
CONTINUOUS
 62
  132
 10
420.94389770250035
 20
297.42828867613252
 11
421.9844683269689
 21
297.6249938533167
  0
LINE
  8
_0-0_0
  6
CONTINUOUS
 62
  132
 10
421.9844683269689
 20
297.6249938533167
 11
423.07108803867532
 21
297.95463118060416
  0
LINE
  8
_0-0_0
  6
CONTINUOUS
 62
  132
 10
423.07108803867532
 20
297.95463118060416
 11
424.17074044753547
 21
298.4071847946098
  0
LINE
  8
_0-0_0
  6
CONTINUOUS
 62
  132
 10
424.17074044753547
 20
298.4071847946098
 11
425.25001317155721
 21
298.96890408277522
  0
LINE
  8
_0-0_0
  6
CONTINUOUS
 62
  132
 10
425.25001317155721
 20
298.96890408277522
 11
426.27611305515938
 21
299.62272148877315
  0
LINE
  8
_0-0_0
  6
CONTINUOUS
 62
  132
 10
426.27611305515938
 20
299.62272148877315
 11
427.21786257261032
 21
300.34877110156998
  0
LINE
  8
_0-0_0
  6
CONTINUOUS
 62
  132
 10
427.21786257261032
 20
300.34877110156998
 11
428.04664714137061
 21
301.12499227107969
  0
LINE
  8
_0-0_0
  6
CONTINUOUS
 62
  132
 10
428.04664714137061
 20
301.12499227107969
 11
428.73728456170363
 21
301.9277999098536
  0
LINE
  8
_0-0_0
  6
CONTINUOUS
 62
  132
 10
428.73728456170363
 20
301.9277999098536
 11
429.268790165072
 21
302.73280111402777
  0
LINE
  8
_0-0_0
  6
CONTINUOUS
 62
  132
 10
429.268790165072
 20
302.73280111402777
 11
429.62501442267216
 21
303.51553632936372
  0
LINE
  8
_0-0_0
  6
CONTINUOUS
 62
  132
 10
429.62501442267216
 20
303.51553632936372
 11
429.79513364069515
 21
304.25222254242652
  0
LINE
  8
_0-0_0
  6
CONTINUOUS
 62
  132
 10
429.79513364069515
 20
304.25222254242652
 11
429.77397883278575
 21
304.92047591541353
  0
LINE
  8
_0-0_0
  6
CONTINUOUS
 62
  132
 10
429.77397883278575
 20
304.92047591541353
 11
429.56219277707742
 21
305.49999190773905
  0
LINE
  8
_0-0_0
  6
CONTINUOUS
 62
  132
 10
429.56219277707742
 20
305.49999190773905
 11
429.56219277707742
 21
305.49999190773905
  0
ENDSEC
  0
EOF
