  0
SECTION
  2
HEADER
  9
$ACADVER
  1
AC1009
  9
$INSBASE
 10
0
 20
0
 30
0
  9
$EXTMIN
 10
0
 20
0
  9
$EXTMAX
 10
1189
 20
841
  9
$LIMMIN
 10
0
 20
0
  9
$LIMMAX
 10
1189
 20
841
  9
$LTSCALE
 40
1
  0
ENDSEC
  0
SECTION
  2
TABLES
  0
TABLE
  2
VPORT
  5
    1
100
AcDbSymbolTable
 70
    1
  0
VPORT
  5
    2
100
AcDbSymbolTableRecord
100
AcDbViewportTableRecord
  2
*Active
 70
    0
 10
0
 20
0
 11
1
 21
1
 12
594.5
 22
420.5
 13
0
 23
0
 14
10
 24
10
 15
10
 25
10
 16
0
 26
0
 36
100
 17
0
 27
0
 37
0
 40
841
 41
1.5376
 42
50
 43
0
 44
0
 50
0
 51
0
 71
    0
 72
  100
 73
    1
 74
    3
 75
    0
 76
    0
 77
    0
 78
    0
  0
ENDTAB
  0
TABLE
  2
LTYPE
 70
     9
  0
LTYPE
  2
CONTINUOUS
 70
    64
  3
実線
 72
    65
 73
     0
 40
0.0
  0
LTYPE
  2
DASHED1
 70
    64
  3
--  --  --  --  --  --  --  --  
 72
    65
 73
     2
 40
2.5
 49
1.25
 49
-1.25
  0
LTYPE
  2
DASHED2
 70
    64
  3
----    ----    ----    ----    
 72
    65
 73
     2
 40
5.0
 49
2.5
 49
-2.5
  0
LTYPE
  2
DASHED3
 70
    64
  3
------  ------  ------  ------  
 72
    65
 73
     2
 40
5.0
 49
3.75
 49
-1.25
  0
LTYPE
  2
CENTER1
 70
    64
  3
----- - ----- - ----- - ----- - 
 72
    65
 73
     4
 40
10.0
 49
6.25
 49
-1.25
 49
1.25
 49
-1.25
  0
LTYPE
  2
CENTER2
 70
    64
  3
----------  --  ----------  --  
 72
    65
 73
     4
 40
20.0
 49
12.5
 49
-2.5
 49
2.5
 49
-2.5
  0
LTYPE
  2
PHANTOM1
 70
    64
  3
--- - - --- - - --- - - --- - - 
 72
    65
 73
     6
 40
10.0
 49
3.25
 49
-1.25
 49
1.25
 49
-1.25
 49
1.25
 49
-1.25
  0
LTYPE
  2
PHANTOM2
 70
    64
  3
--------  -  -  --------  -  -  
 72
    65
 73
     6
 40
20.0
 49
10.0
 49
-2.5
 49
1.25
 49
-2.5
 49
1.25
 49
-2.5
  0
LTYPE
  2
DOT
 70
    64
  3
-   -   -   -   -   -   -   -   
 72
    65
 73
     2
 40
2.5
 49
0.625
 49
-1.875
  0
LTYPE
  2
DUMMY
 70
    64
  3
ダミー
 72
    65
 73
     0
 40
0.0
  0
LTYPE
  2
RAND1
 70
    64
  3
ランダム線1
 72
    65
 73
     4
 40
10.0
 49
1.0
 49
-2.0
 49
3.0
 49
-4.0
  0
LTYPE
  2
RAND2
 70
    64
  3
ランダム線2
 72
    65
 73
     4
 40
14.0
 49
2.0
 49
-3.0
 49
4.0
 49
-5.0
  0
LTYPE
  2
RAND3
 70
    64
  3
ランダム線3
 72
    65
 73
     4
 40
18.0
 49
3.0
 49
-4.0
 49
5.0
 49
-6.0
  0
LTYPE
  2
RAND4
 70
    64
  3
ランダム線4
 72
    65
 73
     4
 40
22.0
 49
4.0
 49
-5.0
 49
6.0
 49
-7.0
  0
LTYPE
  2
RAND5
 70
    64
  3
ランダム線5
 72
    65
 73
     4
 40
26.0
 49
5.0
 49
-6.0
 49
7.0
 49
-8.0
  0
LTYPE
  2
LONG1
 70
    64
  3
----------  --  ----------  --  
 72
    65
 73
     4
 40
40.0
 49
32.5
 49
-2.5
 49
2.5
 49
-2.5
  0
LTYPE
  2
LONG2
 70
    64
  3
--------  -  -  --------  -  -  
 72
    65
 73
     6
 40
40.0
 49
30.0
 49
-2.5
 49
1.25
 49
-2.5
 49
1.25
 49
-2.5
  0
LTYPE
  2
LONG3
 70
    64
  3
+++++++++++++++..+++++++++++++++
 72
    65
 73
     2
 40
40.0
 49
37.5
 49
-2.5
  0
LTYPE
  2
LONG4
 70
    64
  3
+++++++++++++++..+++++++++++++++
 72
    65
 73
     2
 40
80.0
 49
75.0
 49
-5.0
  0
LTYPE
  2
LONG5
 70
    64
  3
----------  --  ----------  --  
 72
    65
 73
     4
 40
60.0
 49
37.5
 49
-7.5
 49
7.5
 49
-7.5
  0
LTYPE
  2
dashed
 70
   64
  3
-------   -------------   ------
 72
   65
 73
    2
 40
7.5
 49
6
 49
-1.5
  0
LTYPE
  2
dashed_spaced
 70
   64
  3
----        --------        ----
 72
   65
 73
    2
 40
12
 49
6
 49
-6
  0
LTYPE
  2
long_dashed_dotted
 70
   64
  3
------------- --- --------------
 72
   65
 73
    4
 40
15.25
 49
12
 49
-1.5
 49
0.25
 49
-1.5
  0
LTYPE
  2
long_dashed_double-dotted
 70
   64
  3
----------- --- --- ------------
 72
   65
 73
    6
 40
17
 49
12
 49
-1.5
 49
0.25
 49
-1.5
 49
0.25
 49
-1.5
  0
LTYPE
  2
long_dashed_triplicate-dotted
 70
   64
  3
--------- --- --- --- ----------
 72
   65
 73
    8
 40
18.75
 49
12
 49
-1.5
 49
0.25
 49
-1.5
 49
0.25
 49
-1.5
 49
0.25
 49
-1.5
  0
LTYPE
  2
dotted
 70
   64
  3
   -       -       -       -    
 72
   65
 73
    2
 40
1.75
 49
0.25
 49
-1.5
  0
LTYPE
  2
chain
 70
   64
  3
-------------- -- --------------
 72
   65
 73
    4
 40
18.5
 49
12
 49
-1.5
 49
3.5
 49
-1.5
  0
LTYPE
  2
chain_double_dash
 70
   64
  3
------------ -- -- -------------
 72
   65
 73
    6
 40
23.5
 49
12
 49
-1.5
 49
3.5
 49
-1.5
 49
3.5
 49
-1.5
  0
LTYPE
  2
dashed_dotted
 70
   64
  3
-----------     -     ----------
 72
   65
 73
    4
 40
9.25
 49
6
 49
-1.5
 49
0.25
 49
-1.5
  0
LTYPE
  2
double-dashed_dotted
 70
   64
  3
------   -----------   -   -----
 72
   65
 73
    6
 40
16.75
 49
6
 49
-1.5
 49
6
 49
-1.5
 49
0.25
 49
-1.5
  0
LTYPE
  2
dashed_double-dotted
 70
   64
  3
---------    -    -    ---------
 72
   65
 73
    6
 40
11
 49
6
 49
-1.5
 49
0.25
 49
-1.5
 49
0.25
 49
-1.5
  0
LTYPE
  2
double-dashed_double-dotted
 70
   64
  3
-----   ---------   -   -   ----
 72
   65
 73
    8
 40
18.5
 49
6
 49
-1.5
 49
6
 49
-1.5
 49
0.25
 49
-1.5
 49
0.25
 49
-1.5
  0
LTYPE
  2
dashed_triplicate-dotted
 70
   64
  3
-------    -    -    -    ------
 72
   65
 73
    8
 40
12.75
 49
6
 49
-1.5
 49
0.25
 49
-1.5
 49
0.25
 49
-1.5
 49
0.25
 49
-1.5
  0
LTYPE
  2
double-dashed_triplicate-dotted
 70
   64
  3
-----  ---------  -  -  -  -----
 72
   65
 73
   10
 40
20.25
 49
6
 49
-1.5
 49
6
 49
-1.5
 49
0.25
 49
-1.5
 49
0.25
 49
-1.5
 49
0.25
 49
-1.5
  0
LTYPE
  2
undefined
 70
   64
  3
--------------------------------
 72
   65
 73
    0
 40
0
  0
LTYPE
  2
_
 70
   64
  3
                                
 72
   65
 73
    0
 40
0
  0
LTYPE
  2
__18
 70
   64
  3
                                
 72
   65
 73
    0
 40
0
  0
LTYPE
  2
__19
 70
   64
  3
                                
 72
   65
 73
    0
 40
0
  0
LTYPE
  2
__20
 70
   64
  3
                                
 72
   65
 73
    0
 40
0
  0
LTYPE
  2
__21
 70
   64
  3
                                
 72
   65
 73
    0
 40
0
  0
LTYPE
  2
__22
 70
   64
  3
                                
 72
   65
 73
    0
 40
0
  0
LTYPE
  2
__23
 70
   64
  3
                                
 72
   65
 73
    0
 40
0
  0
LTYPE
  2
__24
 70
   64
  3
                                
 72
   65
 73
    0
 40
0
  0
LTYPE
  2
__25
 70
   64
  3
                                
 72
   65
 73
    0
 40
0
  0
LTYPE
  2
__26
 70
   64
  3
                                
 72
   65
 73
    0
 40
0
  0
LTYPE
  2
__27
 70
   64
  3
                                
 72
   65
 73
    0
 40
0
  0
LTYPE
  2
__28
 70
   64
  3
                                
 72
   65
 73
    0
 40
0
  0
LTYPE
  2
__29
 70
   64
  3
                                
 72
   65
 73
    0
 40
0
  0
LTYPE
  2
__30
 70
   64
  3
                                
 72
   65
 73
    0
 40
0
  0
LTYPE
  2
__31
 70
   64
  3
                                
 72
   65
 73
    0
 40
0
  0
LTYPE
  2
__32
 70
   64
  3
                                
 72
   65
 73
    0
 40
0
  0
ENDTAB
  0
TABLE
  2
STYLE
  5
3
100
AcDbSymbolTable
 70
     1
  0
STYLE
  5
10
100
AcDbSymbolTableRecord
100
AcDbTextStyleTableRecord
  2
STANDARD
 70
     0
 40
0.0
 41
1.0
 50
0.0
 71
     0
 42
0.2
  3
txt
  4
bigfont.shx
  0
STYLE
  5
26
100
AcDbSymbolTableRecord
100
AcDbTextStyleTableRecord
  2
TATEGAKI
 70
    68
 40
0.0
 41
1.0
 50
0.0
 71
     0
 42
1.0
  3
txt
  4
bigfont.shx
  0
ENDTAB
  0
TABLE
  2
LAYER
 70
    2
  0
LAYER
  2
_3-4_
 70
   64
 62
    7
  6
CONTINUOUS
  0
LAYER
  2
ADD_LINE
 70
   64
 62
    7
  6
CONTINUOUS
  0
ENDTAB
  0
ENDSEC
  0
SECTION
  2
BLOCKS
  0
ENDSEC
  0
SECTION
  2
ENTITIES
  0
LINE
  8
_3-4_
  6
DASHED1
 62
   92
 10
570.32534334160504
 20
438.39937910947099
 11
570.32534334160504
 21
438.39937910947099
  0
LINE
  8
_3-4_
  6
DASHED1
 62
   92
 10
570.32534334160504
 20
438.39937910947099
 11
569.28658366901902
 21
437.38448625633253
  0
LINE
  8
_3-4_
  6
DASHED1
 62
   92
 10
569.28658366901902
 20
437.38448625633253
 11
568.48978851517313
 21
436.12622875176538
  0
LINE
  8
_3-4_
  6
DASHED1
 62
   92
 10
568.48978851517313
 20
436.12622875176538
 11
567.95916809761911
 21
434.66283811333676
  0
LINE
  8
_3-4_
  6
DASHED1
 62
   92
 10
567.95916809761911
 20
434.66283811333676
 11
567.71084504923749
 21
433.038778725084
  0
LINE
  8
_3-4_
  6
DASHED1
 62
   92
 10
567.71084504923749
 20
433.038778725084
 11
567.75236454019591
 21
431.30339680970541
  0
LINE
  8
_3-4_
  6
DASHED1
 62
   92
 10
567.75236454019591
 20
431.30339680970541
 11
568.08246502177132
 21
429.50942106855421
  0
LINE
  8
_3-4_
  6
DASHED1
 62
   92
 10
568.08246502177132
 20
429.50942106855421
 11
568.69111655787014
 21
427.71136054672967
  0
LINE
  8
_3-4_
  6
DASHED1
 62
   92
 10
568.69111655787014
 20
427.71136054672967
 11
569.55982557956042
 21
425.96384840332495
  0
LINE
  8
_3-4_
  6
DASHED1
 62
   92
 10
569.55982557956042
 20
425.96384840332495
 11
570.66219680280596
 21
424.31998191053361
  0
LINE
  8
_3-4_
  6
DASHED1
 62
   92
 10
570.66219680280596
 20
424.31998191053361
 11
571.96473523581551
 21
422.82970911990247
  0
LINE
  8
_3-4_
  6
DASHED1
 62
   92
 10
571.96473523581551
 20
422.82970911990247
 11
573.4278639074181
 21
421.53831121606049
  0
LINE
  8
_3-4_
  6
DASHED1
 62
   92
 10
573.4278639074181
 20
421.53831121606049
 11
575.00712639330595
 21
420.48502667083704
  0
LINE
  8
_3-4_
  6
DASHED1
 62
   92
 10
575.00712639330595
 20
420.48502667083704
 11
576.65453760199068
 21
419.70185900215096
  0
LINE
  8
_3-4_
  6
DASHED1
 62
   92
 10
576.65453760199068
 20
419.70185900215096
 11
578.32004177752685
 21
419.21260436331345
  0
LINE
  8
_3-4_
  6
DASHED1
 62
   92
 10
578.32004177752685
 20
419.21260436331345
 11
579.95303341832652
 21
419.03212850895067
  0
LINE
  8
_3-4_
  6
DASHED1
 62
   92
 10
579.95303341832652
 20
419.03212850895067
 11
581.50389489971757
 21
419.16591510657229
  0
LINE
  8
_3-4_
  6
DASHED1
 62
   92
 10
581.50389489971757
 20
419.16591510657229
 11
582.92550408036174
 21
419.60989911810889
  0
LINE
  8
_3-4_
  6
DASHED1
 62
   92
 10
582.92550408036174
 20
419.60989911810889
 11
584.17466608467407
 21
420.35059031403665
  0
LINE
  8
_3-4_
  6
DASHED1
 62
   92
 10
584.17466608467407
 20
420.35059031403665
 11
585.21342575726009
 21
421.36548316717511
  0
LINE
  8
_3-4_
  6
DASHED1
 62
   92
 10
585.21342575726009
 20
421.36548316717511
 11
586.01022091110598
 21
422.62374067174226
  0
LINE
  8
_3-4_
  6
DASHED1
 62
   92
 10
586.01022091110598
 20
422.62374067174226
 11
586.54084132866
 21
424.08713131017083
  0
LINE
  8
_3-4_
  6
DASHED1
 62
   92
 10
586.54084132866
 20
424.08713131017083
 11
586.78916437704162
 21
425.71119069842359
  0
LINE
  8
_3-4_
  6
DASHED1
 62
   92
 10
586.78916437704162
 20
425.71119069842359
 11
586.7476448860832
 21
427.44657261380217
  0
LINE
  8
_3-4_
  6
DASHED1
 62
   92
 10
586.7476448860832
 20
427.44657261380217
 11
586.41754440450779
 21
429.24054835495343
  0
LINE
  8
_3-4_
  6
DASHED1
 62
   92
 10
586.41754440450779
 20
429.24054835495343
 11
585.80889286840897
 21
431.03860887677791
  0
LINE
  8
_3-4_
  6
DASHED1
 62
   92
 10
585.80889286840897
 20
431.03860887677791
 11
584.9401838467188
 21
432.78612102018263
  0
LINE
  8
_3-4_
  6
DASHED1
 62
   92
 10
584.9401838467188
 20
432.78612102018263
 11
583.83781262347315
 21
434.42998751297403
  0
LINE
  8
_3-4_
  6
DASHED1
 62
   92
 10
583.83781262347315
 20
434.42998751297403
 11
582.53527419046361
 21
435.92026030360511
  0
LINE
  8
_3-4_
  6
DASHED1
 62
   92
 10
582.53527419046361
 20
435.92026030360511
 11
581.07214551886113
 21
437.2116582074471
  0
LINE
  8
_3-4_
  6
DASHED1
 62
   92
 10
581.07214551886113
 20
437.2116582074471
 11
579.49288303297328
 21
438.2649427526706
  0
LINE
  8
_3-4_
  6
DASHED1
 62
   92
 10
579.49288303297328
 20
438.2649427526706
 11
577.84547182428843
 21
439.04811042135662
  0
LINE
  8
_3-4_
  6
DASHED1
 62
   92
 10
577.84547182428843
 20
439.04811042135662
 11
576.17996764875226
 21
439.53736506019419
  0
LINE
  8
_3-4_
  6
DASHED1
 62
   92
 10
576.17996764875226
 20
439.53736506019419
 11
574.5469760079527
 21
439.71784091455697
  0
LINE
  8
_3-4_
  6
DASHED1
 62
   92
 10
574.5469760079527
 20
439.71784091455697
 11
572.99611452656165
 21
439.58405431693535
  0
LINE
  8
_3-4_
  6
DASHED1
 62
   92
 10
572.99611452656165
 20
439.58405431693535
 11
571.57450534591748
 21
439.1400703053988
  0
LINE
  8
_3-4_
  6
DASHED1
 62
   92
 10
571.57450534591748
 20
439.1400703053988
 11
570.32534334160504
 21
438.39937910947105
  0
LINE
  8
_3-4_
  6
DASHED1
 62
   92
 10
570.32534334160504
 20
438.39937910947105
 11
570.32534334160504
 21
438.39937910947099
  0
ENDSEC
  0
EOF
